<?xml version="1.0" standalone="no"?>
<!DOCTYPE svg PUBLIC "-//W3C//DTD SVG 20010904//EN"
 "http://www.w3.org/TR/2001/REC-SVG-20010904/DTD/svg10.dtd">
<svg version="1.0" xmlns="http://www.w3.org/2000/svg"
 width="300.000000pt" height="252.000000pt" viewBox="0 0 300.000000 252.000000"
 preserveAspectRatio="xMidYMid meet">
<metadata>
Created by potrace 1.10, written by Peter Selinger 2001-2011
</metadata>
<g transform="translate(0.000000,252.000000) scale(0.100000,-0.100000)"
fill="#000000" stroke="none">
<path d="M455 2232 c-18 -13 -38 -60 -30 -72 4 -7 18 -9 36 -5 24 6 29 3 29
-13 0 -11 -7 -22 -15 -26 -20 -7 -19 -25 3 -34 9 -4 17 -15 17 -25 0 -18 22
-18 482 -17 l483 1 2 -783 3 -783 53 1 c29 1 59 7 66 13 9 8 15 8 18 2 1 -6
18 -13 36 -17 l32 -6 0 786 0 787 363 -1 c329 -2 362 -1 359 14 -2 11 7 18 28
22 38 8 42 41 5 50 -14 3 -25 13 -25 21 0 11 7 13 24 9 14 -3 28 -1 31 4 10
17 -17 68 -40 74 -31 9 -1949 7 -1960 -2z m1924 -63 c-6 -12 -8 -30 -5 -42 12
-46 4 -47 -346 -47 -336 0 -357 -2 -385 -39 -10 -12 -12 -192 -13 -763 0 -412
-1 -748 -2 -749 -2 0 -31 -3 -65 -6 l-63 -5 -2 756 -3 755 -23 23 -23 23 -462
5 -462 5 -5 40 c-3 22 -9 46 -13 53 -7 9 184 12 938 12 l946 0 -12 -21z"/>
</g>
</svg>
